<?xml version="1.0" encoding="utf-8"?>
<!-- Generator: Adobe Illustrator 23.0.0, SVG Export Plug-In . SVG Version: 6.00 Build 0)  -->
<svg version="1.1" id="Layer_1" xmlns="http://www.w3.org/2000/svg" xmlns:xlink="http://www.w3.org/1999/xlink" x="0px" y="0px"
	 viewBox="0 0 20 20" style="enable-background:new 0 0 20 20;" xml:space="preserve">
<style type="text/css">
	.st0{fill:#CAC2A3;}
	.st1{fill:#FAF9F4;}
</style>
<g>
	<circle class="st0" cx="10" cy="10" r="10"/>
	<path class="st1" d="M16.6,7.42c-0.69,0.23-1.47,0.22-2.13-0.09c-0.83-0.39-1.44-1.27-1.41-2.19c0.02-0.59,0.24-1.25-0.13-1.7
		c-0.31-0.37-0.9-0.36-1.32-0.14c-0.42,0.22-0.74,0.61-1.07,0.95C9.25,5.6,7.48,6.46,5.64,6.65C5.4,6.67,5.11,6.66,4.98,6.46
		c-0.06-0.09-0.07-0.2-0.08-0.3C4.86,5.53,4.97,4.89,5.21,4.31C5.29,4.13,5.1,3.95,4.93,4.03c0,0,0,0,0,0
		c-0.2,0.1-0.4,0.22-0.58,0.36C3.98,4.65,3.67,4.97,3.42,5.32c-0.5,0.71-0.77,1.61-0.19,2.37c0.33,0.43,0.86,0.69,1.4,0.76
		s1.09-0.02,1.61-0.18c1.72-0.52,3.15-1.69,4.74-2.53c0.3-0.16,0.68-0.02,0.8,0.29c0.18,0.44,0.26,0.89,0.04,1.29
		c-0.22,0.4-0.69,0.59-1.12,0.75L7.4,9.3C7.16,9.39,7.22,9.74,7.47,9.75c0.14,0.01,0.27,0,0.41-0.02c0.99-0.11,1.97-0.29,2.94-0.55
		c0.41-0.11,0.88-0.23,1.24-0.01c0.29,0.17,0.44,0.51,0.51,0.84c0.05,0.24,0.06,0.49,0.05,0.73c-0.03,0.44-0.46,0.73-0.88,0.62
		c-2.16-0.57-4.51-0.61-6.48,0.4c-0.45,0.23-0.91,0.57-0.95,1.07c-0.03,0.33,0.14,0.64,0.32,0.92c0.74,1.14,1.8,2.08,3.02,2.68
		c0.74,0.36,1.61,0.6,2.38,0.33c1.03-0.36,1.62-1.5,2.54-2.05c0.22-0.13,0.51-0.03,0.59,0.22c0.13,0.39,0.29,0.77,0.52,1.1
		c0.33,0.45,0.84,0.8,1.4,0.79c0.38-0.01,0.75-0.23,0.94-0.54c0.13-0.22,0.05-0.5-0.18-0.61c-0.52-0.25-0.86-0.84-0.97-1.42
		c-0.13-0.69-0.01-1.4,0-2.11c0.02-0.99-0.17-1.99-0.56-2.9c-0.05-0.11-0.06-0.22-0.03-0.34c0.09-0.37,0.55-0.35,0.89-0.35
		c0.63-0.01,1.24-0.33,1.64-0.82C16.93,7.57,16.78,7.36,16.6,7.42L16.6,7.42z M11.25,13.64C11.25,13.64,11.25,13.64,11.25,13.64
		c-0.63,0.6-1.26,1.21-2.01,1.65c-0.51,0.3-1.11,0.52-1.7,0.4c-0.59-0.12-1.09-0.58-1.3-1.15c-0.19-0.51-0.2-1.27,0.1-1.75
		c0.27-0.44,0.87-0.71,1.34-0.83c0.51-0.13,1.04-0.13,1.57-0.1c0.91,0.06,1.85,0.23,2.61,0.72c0.05,0.03,0.1,0.07,0.11,0.13
		c0,0.04-0.01,0.07-0.03,0.11C11.76,13.14,11.5,13.4,11.25,13.64z"/>
</g>
</svg>
